<mxfile host="drawio-plugin" modified="2023-04-06T21:19:48.369Z" agent="5.0 (Windows NT 6.2; Win64; x64) AppleWebKit/537.36 (KHTML, like Gecko) Chrome/104.0.5112.102 Safari/537.36" etag="IBEso6NCNsXyQHOfRB9y" version="20.5.3" type="embed"><diagram id="2naHUP0Jf4CGu1XOD5bx" name="Page-1"><mxGraphModel dx="1595" dy="519" grid="1" gridSize="10" guides="1" tooltips="1" connect="1" arrows="1" fold="1" page="1" pageScale="1" pageWidth="827" pageHeight="1169" math="0" shadow="0"><root><mxCell id="0"/><mxCell id="1" parent="0"/><mxCell id="uDMKsp8AjRwjAYGQzWfB-1" value="UtilisateurElèves " style="swimlane;fontStyle=0;childLayout=stackLayout;horizontal=1;startSize=26;fillColor=none;horizontalStack=0;resizeParent=1;resizeParentMax=0;resizeLast=0;collapsible=1;marginBottom=0;" parent="1" vertex="1"><mxGeometry x="-640" y="30" width="120" height="270" as="geometry"/></mxCell><mxCell id="uDMKsp8AjRwjAYGQzWfB-2" value="id_user" style="text;strokeColor=none;fillColor=none;align=left;verticalAlign=top;spacingLeft=4;spacingRight=4;overflow=hidden;rotatable=0;points=[[0,0.5],[1,0.5]];portConstraint=eastwest;" parent="uDMKsp8AjRwjAYGQzWfB-1" vertex="1"><mxGeometry y="26" width="120" height="26" as="geometry"/></mxCell><mxCell id="uDMKsp8AjRwjAYGQzWfB-3" value="nom&#10;" style="text;strokeColor=none;fillColor=none;align=left;verticalAlign=top;spacingLeft=4;spacingRight=4;overflow=hidden;rotatable=0;points=[[0,0.5],[1,0.5]];portConstraint=eastwest;" parent="uDMKsp8AjRwjAYGQzWfB-1" vertex="1"><mxGeometry y="52" width="120" height="26" as="geometry"/></mxCell><mxCell id="uDMKsp8AjRwjAYGQzWfB-4" value="prenom&#10;&#10;email &#10;&#10;valider &#10;&#10;Adresse &#10;&#10;domaine d'etude &#10;&#10;niveau d'etude " style="text;strokeColor=none;fillColor=none;align=left;verticalAlign=top;spacingLeft=4;spacingRight=4;overflow=hidden;rotatable=0;points=[[0,0.5],[1,0.5]];portConstraint=eastwest;" parent="uDMKsp8AjRwjAYGQzWfB-1" vertex="1"><mxGeometry y="78" width="120" height="162" as="geometry"/></mxCell><mxCell id="r367V5P4rf6iQ48ipHcj-1" value="role " style="text;strokeColor=none;fillColor=none;align=left;verticalAlign=top;spacingLeft=4;spacingRight=4;overflow=hidden;rotatable=0;points=[[0,0.5],[1,0.5]];portConstraint=eastwest;" parent="uDMKsp8AjRwjAYGQzWfB-1" vertex="1"><mxGeometry y="240" width="120" height="30" as="geometry"/></mxCell><mxCell id="uDMKsp8AjRwjAYGQzWfB-5" value="inscrit" style="swimlane;fontStyle=0;childLayout=stackLayout;horizontal=1;startSize=26;fillColor=none;horizontalStack=0;resizeParent=1;resizeParentMax=0;resizeLast=0;collapsible=1;marginBottom=0;" parent="1" vertex="1"><mxGeometry x="-480" y="70" width="120" height="78" as="geometry"/></mxCell><mxCell id="uDMKsp8AjRwjAYGQzWfB-6" value="ref_eleves #" style="text;strokeColor=none;fillColor=none;align=left;verticalAlign=top;spacingLeft=4;spacingRight=4;overflow=hidden;rotatable=0;points=[[0,0.5],[1,0.5]];portConstraint=eastwest;fontStyle=4" parent="uDMKsp8AjRwjAYGQzWfB-5" vertex="1"><mxGeometry y="26" width="120" height="26" as="geometry"/></mxCell><mxCell id="uDMKsp8AjRwjAYGQzWfB-7" value="ref_event #" style="text;strokeColor=none;fillColor=none;align=left;verticalAlign=top;spacingLeft=4;spacingRight=4;overflow=hidden;rotatable=0;points=[[0,0.5],[1,0.5]];portConstraint=eastwest;fontStyle=4" parent="uDMKsp8AjRwjAYGQzWfB-5" vertex="1"><mxGeometry y="52" width="120" height="26" as="geometry"/></mxCell><mxCell id="uDMKsp8AjRwjAYGQzWfB-9" value="Evenement " style="swimlane;fontStyle=0;childLayout=stackLayout;horizontal=1;startSize=26;fillColor=none;horizontalStack=0;resizeParent=1;resizeParentMax=0;resizeLast=0;collapsible=1;marginBottom=0;" parent="1" vertex="1"><mxGeometry x="-320" y="30" width="120" height="310" as="geometry"/></mxCell><mxCell id="uDMKsp8AjRwjAYGQzWfB-10" value="id_event " style="text;strokeColor=none;fillColor=none;align=left;verticalAlign=top;spacingLeft=4;spacingRight=4;overflow=hidden;rotatable=0;points=[[0,0.5],[1,0.5]];portConstraint=eastwest;" parent="uDMKsp8AjRwjAYGQzWfB-9" vertex="1"><mxGeometry y="26" width="120" height="26" as="geometry"/></mxCell><mxCell id="uDMKsp8AjRwjAYGQzWfB-11" value="nom_event" style="text;strokeColor=none;fillColor=none;align=left;verticalAlign=top;spacingLeft=4;spacingRight=4;overflow=hidden;rotatable=0;points=[[0,0.5],[1,0.5]];portConstraint=eastwest;" parent="uDMKsp8AjRwjAYGQzWfB-9" vertex="1"><mxGeometry y="52" width="120" height="26" as="geometry"/></mxCell><mxCell id="uDMKsp8AjRwjAYGQzWfB-12" value="Description&#10;&#10;Date &#10;&#10;Heure &#10;&#10;durée &#10;&#10;nombre_inscrit &#10;&#10;autorise " style="text;strokeColor=none;fillColor=none;align=left;verticalAlign=top;spacingLeft=4;spacingRight=4;overflow=hidden;rotatable=0;points=[[0,0.5],[1,0.5]];portConstraint=eastwest;" parent="uDMKsp8AjRwjAYGQzWfB-9" vertex="1"><mxGeometry y="78" width="120" height="172" as="geometry"/></mxCell><mxCell id="uDMKsp8AjRwjAYGQzWfB-27" value="ref_salle #" style="text;strokeColor=none;fillColor=none;align=left;verticalAlign=top;spacingLeft=4;spacingRight=4;overflow=hidden;rotatable=0;points=[[0,0.5],[1,0.5]];portConstraint=eastwest;" parent="uDMKsp8AjRwjAYGQzWfB-9" vertex="1"><mxGeometry y="250" width="120" height="30" as="geometry"/></mxCell><mxCell id="0Kl0KZCjWH0iGxKPfMm2-67" value="ref_admin #" style="text;strokeColor=none;fillColor=none;align=left;verticalAlign=top;spacingLeft=4;spacingRight=4;overflow=hidden;rotatable=0;points=[[0,0.5],[1,0.5]];portConstraint=eastwest;" parent="uDMKsp8AjRwjAYGQzWfB-9" vertex="1"><mxGeometry y="280" width="120" height="30" as="geometry"/></mxCell><mxCell id="uDMKsp8AjRwjAYGQzWfB-14" value="" style="edgeStyle=orthogonalEdgeStyle;rounded=0;orthogonalLoop=1;jettySize=auto;html=1;endArrow=oval;endFill=1;entryX=1;entryY=0.5;entryDx=0;entryDy=0;" parent="1" source="uDMKsp8AjRwjAYGQzWfB-10" target="uDMKsp8AjRwjAYGQzWfB-7" edge="1"><mxGeometry relative="1" as="geometry"/></mxCell><mxCell id="uDMKsp8AjRwjAYGQzWfB-15" value="" style="edgeStyle=orthogonalEdgeStyle;rounded=0;orthogonalLoop=1;jettySize=auto;html=1;endArrow=oval;endFill=1;entryX=0;entryY=0.5;entryDx=0;entryDy=0;" parent="1" source="uDMKsp8AjRwjAYGQzWfB-2" target="uDMKsp8AjRwjAYGQzWfB-17" edge="1"><mxGeometry relative="1" as="geometry"/></mxCell><mxCell id="uDMKsp8AjRwjAYGQzWfB-16" value="cree" style="swimlane;fontStyle=0;childLayout=stackLayout;horizontal=1;startSize=26;fillColor=none;horizontalStack=0;resizeParent=1;resizeParentMax=0;resizeLast=0;collapsible=1;marginBottom=0;" parent="1" vertex="1"><mxGeometry x="-480" y="174" width="120" height="78" as="geometry"/></mxCell><mxCell id="uDMKsp8AjRwjAYGQzWfB-17" value="ref_eleves #" style="text;strokeColor=none;fillColor=none;align=left;verticalAlign=top;spacingLeft=4;spacingRight=4;overflow=hidden;rotatable=0;points=[[0,0.5],[1,0.5]];portConstraint=eastwest;fontStyle=4" parent="uDMKsp8AjRwjAYGQzWfB-16" vertex="1"><mxGeometry y="26" width="120" height="26" as="geometry"/></mxCell><mxCell id="uDMKsp8AjRwjAYGQzWfB-18" value="ref_event #" style="text;strokeColor=none;fillColor=none;align=left;verticalAlign=top;spacingLeft=4;spacingRight=4;overflow=hidden;rotatable=0;points=[[0,0.5],[1,0.5]];portConstraint=eastwest;fontStyle=4" parent="uDMKsp8AjRwjAYGQzWfB-16" vertex="1"><mxGeometry y="52" width="120" height="26" as="geometry"/></mxCell><mxCell id="uDMKsp8AjRwjAYGQzWfB-19" value="" style="edgeStyle=orthogonalEdgeStyle;rounded=0;orthogonalLoop=1;jettySize=auto;html=1;endArrow=oval;endFill=1;" parent="1" source="uDMKsp8AjRwjAYGQzWfB-2" target="0Kl0KZCjWH0iGxKPfMm2-37" edge="1"><mxGeometry relative="1" as="geometry"/></mxCell><mxCell id="uDMKsp8AjRwjAYGQzWfB-21" value="Salle " style="swimlane;fontStyle=0;childLayout=stackLayout;horizontal=1;startSize=26;fillColor=none;horizontalStack=0;resizeParent=1;resizeParentMax=0;resizeLast=0;collapsible=1;marginBottom=0;" parent="1" vertex="1"><mxGeometry x="-160" y="70" width="120" height="104" as="geometry"/></mxCell><mxCell id="uDMKsp8AjRwjAYGQzWfB-22" value="Id_salle " style="text;strokeColor=none;fillColor=none;align=left;verticalAlign=top;spacingLeft=4;spacingRight=4;overflow=hidden;rotatable=0;points=[[0,0.5],[1,0.5]];portConstraint=eastwest;" parent="uDMKsp8AjRwjAYGQzWfB-21" vertex="1"><mxGeometry y="26" width="120" height="26" as="geometry"/></mxCell><mxCell id="uDMKsp8AjRwjAYGQzWfB-23" value="type de salle " style="text;strokeColor=none;fillColor=none;align=left;verticalAlign=top;spacingLeft=4;spacingRight=4;overflow=hidden;rotatable=0;points=[[0,0.5],[1,0.5]];portConstraint=eastwest;" parent="uDMKsp8AjRwjAYGQzWfB-21" vertex="1"><mxGeometry y="52" width="120" height="26" as="geometry"/></mxCell><mxCell id="uDMKsp8AjRwjAYGQzWfB-24" value="nombre de place " style="text;strokeColor=none;fillColor=none;align=left;verticalAlign=top;spacingLeft=4;spacingRight=4;overflow=hidden;rotatable=0;points=[[0,0.5],[1,0.5]];portConstraint=eastwest;" parent="uDMKsp8AjRwjAYGQzWfB-21" vertex="1"><mxGeometry y="78" width="120" height="26" as="geometry"/></mxCell><mxCell id="uDMKsp8AjRwjAYGQzWfB-31" style="edgeStyle=orthogonalEdgeStyle;rounded=0;orthogonalLoop=1;jettySize=auto;html=1;exitX=0;exitY=0.5;exitDx=0;exitDy=0;endArrow=oval;endFill=1;" parent="1" source="uDMKsp8AjRwjAYGQzWfB-22" target="uDMKsp8AjRwjAYGQzWfB-27" edge="1"><mxGeometry relative="1" as="geometry"/></mxCell><mxCell id="0Kl0KZCjWH0iGxKPfMm2-17" value="" style="edgeStyle=orthogonalEdgeStyle;rounded=0;orthogonalLoop=1;jettySize=auto;html=1;startArrow=none;startFill=0;endArrow=oval;endFill=1;entryX=1;entryY=0.5;entryDx=0;entryDy=0;" parent="1" source="uDMKsp8AjRwjAYGQzWfB-10" target="uDMKsp8AjRwjAYGQzWfB-18" edge="1"><mxGeometry relative="1" as="geometry"/></mxCell><mxCell id="0Kl0KZCjWH0iGxKPfMm2-18" value="offre " style="swimlane;fontStyle=0;childLayout=stackLayout;horizontal=1;startSize=26;fillColor=none;horizontalStack=0;resizeParent=1;resizeParentMax=0;resizeLast=0;collapsible=1;marginBottom=0;" parent="1" vertex="1"><mxGeometry x="-800" y="280" width="120" height="250" as="geometry"/></mxCell><mxCell id="0Kl0KZCjWH0iGxKPfMm2-19" value="id_offre " style="text;strokeColor=none;fillColor=none;align=left;verticalAlign=top;spacingLeft=4;spacingRight=4;overflow=hidden;rotatable=0;points=[[0,0.5],[1,0.5]];portConstraint=eastwest;" parent="0Kl0KZCjWH0iGxKPfMm2-18" vertex="1"><mxGeometry y="26" width="120" height="26" as="geometry"/></mxCell><mxCell id="0Kl0KZCjWH0iGxKPfMm2-20" value="titre_offre " style="text;strokeColor=none;fillColor=none;align=left;verticalAlign=top;spacingLeft=4;spacingRight=4;overflow=hidden;rotatable=0;points=[[0,0.5],[1,0.5]];portConstraint=eastwest;" parent="0Kl0KZCjWH0iGxKPfMm2-18" vertex="1"><mxGeometry y="52" width="120" height="26" as="geometry"/></mxCell><mxCell id="0Kl0KZCjWH0iGxKPfMm2-21" value="Description&#10;&#10;date_publication &#10;&#10;type_de_contrat&#10;&#10;durer_contrat&#10;&#10;pourvue " style="text;strokeColor=none;fillColor=none;align=left;verticalAlign=top;spacingLeft=4;spacingRight=4;overflow=hidden;rotatable=0;points=[[0,0.5],[1,0.5]];portConstraint=eastwest;" parent="0Kl0KZCjWH0iGxKPfMm2-18" vertex="1"><mxGeometry y="78" width="120" height="142" as="geometry"/></mxCell><mxCell id="0Kl0KZCjWH0iGxKPfMm2-22" value="ref_user#" style="text;strokeColor=none;fillColor=none;align=left;verticalAlign=top;spacingLeft=4;spacingRight=4;overflow=hidden;rotatable=0;points=[[0,0.5],[1,0.5]];portConstraint=eastwest;" parent="0Kl0KZCjWH0iGxKPfMm2-18" vertex="1"><mxGeometry y="220" width="120" height="30" as="geometry"/></mxCell><mxCell id="0Kl0KZCjWH0iGxKPfMm2-34" value="" style="edgeStyle=orthogonalEdgeStyle;rounded=0;orthogonalLoop=1;jettySize=auto;html=1;startArrow=none;startFill=0;endArrow=oval;endFill=1;entryX=1;entryY=0.5;entryDx=0;entryDy=0;exitX=0.017;exitY=0.3;exitDx=0;exitDy=0;exitPerimeter=0;" parent="1" source="r367V5P4rf6iQ48ipHcj-1" target="0Kl0KZCjWH0iGxKPfMm2-22" edge="1"><mxGeometry relative="1" as="geometry"><mxPoint x="-640" y="359" as="sourcePoint"/></mxGeometry></mxCell><mxCell id="0Kl0KZCjWH0iGxKPfMm2-36" value="postule " style="swimlane;fontStyle=0;childLayout=stackLayout;horizontal=1;startSize=30;horizontalStack=0;resizeParent=1;resizeParentMax=0;resizeLast=0;collapsible=1;marginBottom=0;" parent="1" vertex="1"><mxGeometry x="-800" y="174" width="120" height="90" as="geometry"/></mxCell><mxCell id="0Kl0KZCjWH0iGxKPfMm2-37" value="ref_user #" style="text;strokeColor=none;fillColor=none;align=left;verticalAlign=middle;spacingLeft=4;spacingRight=4;overflow=hidden;points=[[0,0.5],[1,0.5]];portConstraint=eastwest;rotatable=0;fontStyle=4" parent="0Kl0KZCjWH0iGxKPfMm2-36" vertex="1"><mxGeometry y="30" width="120" height="30" as="geometry"/></mxCell><mxCell id="0Kl0KZCjWH0iGxKPfMm2-46" value="ref_offre #" style="text;strokeColor=none;fillColor=none;align=left;verticalAlign=middle;spacingLeft=4;spacingRight=4;overflow=hidden;points=[[0,0.5],[1,0.5]];portConstraint=eastwest;rotatable=0;fontStyle=4" parent="0Kl0KZCjWH0iGxKPfMm2-36" vertex="1"><mxGeometry y="60" width="120" height="30" as="geometry"/></mxCell><mxCell id="0Kl0KZCjWH0iGxKPfMm2-43" value="" style="edgeStyle=orthogonalEdgeStyle;rounded=0;orthogonalLoop=1;jettySize=auto;html=1;startArrow=none;startFill=0;endArrow=oval;endFill=1;" parent="1" source="uDMKsp8AjRwjAYGQzWfB-2" target="uDMKsp8AjRwjAYGQzWfB-6" edge="1"><mxGeometry relative="1" as="geometry"/></mxCell><mxCell id="0Kl0KZCjWH0iGxKPfMm2-48" value="" style="edgeStyle=orthogonalEdgeStyle;rounded=0;orthogonalLoop=1;jettySize=auto;html=1;startArrow=none;startFill=0;endArrow=oval;endFill=1;entryX=0;entryY=0.5;entryDx=0;entryDy=0;" parent="1" source="0Kl0KZCjWH0iGxKPfMm2-19" target="0Kl0KZCjWH0iGxKPfMm2-46" edge="1"><mxGeometry relative="1" as="geometry"><Array as="points"><mxPoint x="-810" y="359"/><mxPoint x="-810" y="249"/></Array></mxGeometry></mxCell><mxCell id="0Kl0KZCjWH0iGxKPfMm2-49" value="rendez-vous" style="swimlane;fontStyle=0;childLayout=stackLayout;horizontal=1;startSize=26;fillColor=none;horizontalStack=0;resizeParent=1;resizeParentMax=0;resizeLast=0;collapsible=1;marginBottom=0;" parent="1" vertex="1"><mxGeometry x="-610" y="560" width="120" height="140" as="geometry"/></mxCell><mxCell id="0Kl0KZCjWH0iGxKPfMm2-50" value="id_rdv" style="text;strokeColor=none;fillColor=none;align=left;verticalAlign=top;spacingLeft=4;spacingRight=4;overflow=hidden;rotatable=0;points=[[0,0.5],[1,0.5]];portConstraint=eastwest;" parent="0Kl0KZCjWH0iGxKPfMm2-49" vertex="1"><mxGeometry y="26" width="120" height="26" as="geometry"/></mxCell><mxCell id="0Kl0KZCjWH0iGxKPfMm2-51" value="date" style="text;strokeColor=none;fillColor=none;align=left;verticalAlign=top;spacingLeft=4;spacingRight=4;overflow=hidden;rotatable=0;points=[[0,0.5],[1,0.5]];portConstraint=eastwest;" parent="0Kl0KZCjWH0iGxKPfMm2-49" vertex="1"><mxGeometry y="52" width="120" height="26" as="geometry"/></mxCell><mxCell id="0Kl0KZCjWH0iGxKPfMm2-52" value="heure &#10;&#10;" style="text;strokeColor=none;fillColor=none;align=left;verticalAlign=top;spacingLeft=4;spacingRight=4;overflow=hidden;rotatable=0;points=[[0,0.5],[1,0.5]];portConstraint=eastwest;" parent="0Kl0KZCjWH0iGxKPfMm2-49" vertex="1"><mxGeometry y="78" width="120" height="32" as="geometry"/></mxCell><mxCell id="0Kl0KZCjWH0iGxKPfMm2-53" value="ref_offre #" style="text;strokeColor=none;fillColor=none;align=left;verticalAlign=top;spacingLeft=4;spacingRight=4;overflow=hidden;rotatable=0;points=[[0,0.5],[1,0.5]];portConstraint=eastwest;" parent="0Kl0KZCjWH0iGxKPfMm2-49" vertex="1"><mxGeometry y="110" width="120" height="30" as="geometry"/></mxCell><mxCell id="0Kl0KZCjWH0iGxKPfMm2-55" value="" style="edgeStyle=orthogonalEdgeStyle;rounded=0;orthogonalLoop=1;jettySize=auto;html=1;startArrow=none;startFill=0;endArrow=oval;endFill=1;entryX=0;entryY=0.5;entryDx=0;entryDy=0;" parent="1" source="0Kl0KZCjWH0iGxKPfMm2-19" target="0Kl0KZCjWH0iGxKPfMm2-53" edge="1"><mxGeometry relative="1" as="geometry"><mxPoint x="-820" y="630" as="targetPoint"/><Array as="points"><mxPoint x="-810" y="359"/><mxPoint x="-810" y="580"/><mxPoint x="-670" y="580"/><mxPoint x="-670" y="735"/></Array></mxGeometry></mxCell><mxCell id="0Kl0KZCjWH0iGxKPfMm2-56" value="presente" style="swimlane;fontStyle=0;childLayout=stackLayout;horizontal=1;startSize=30;horizontalStack=0;resizeParent=1;resizeParentMax=0;resizeLast=0;collapsible=1;marginBottom=0;" parent="1" vertex="1"><mxGeometry x="-800" y="64" width="120" height="90" as="geometry"/></mxCell><mxCell id="0Kl0KZCjWH0iGxKPfMm2-57" value="ref_user#" style="text;strokeColor=none;fillColor=none;align=left;verticalAlign=middle;spacingLeft=4;spacingRight=4;overflow=hidden;points=[[0,0.5],[1,0.5]];portConstraint=eastwest;rotatable=0;fontStyle=4" parent="0Kl0KZCjWH0iGxKPfMm2-56" vertex="1"><mxGeometry y="30" width="120" height="30" as="geometry"/></mxCell><mxCell id="0Kl0KZCjWH0iGxKPfMm2-58" value="ref_rdv #" style="text;strokeColor=none;fillColor=none;align=left;verticalAlign=middle;spacingLeft=4;spacingRight=4;overflow=hidden;points=[[0,0.5],[1,0.5]];portConstraint=eastwest;rotatable=0;fontStyle=4" parent="0Kl0KZCjWH0iGxKPfMm2-56" vertex="1"><mxGeometry y="60" width="120" height="30" as="geometry"/></mxCell><mxCell id="0Kl0KZCjWH0iGxKPfMm2-59" value="" style="edgeStyle=orthogonalEdgeStyle;rounded=0;orthogonalLoop=1;jettySize=auto;html=1;startArrow=none;startFill=0;endArrow=oval;endFill=1;" parent="1" source="uDMKsp8AjRwjAYGQzWfB-2" target="0Kl0KZCjWH0iGxKPfMm2-57" edge="1"><mxGeometry relative="1" as="geometry"/></mxCell><mxCell id="0Kl0KZCjWH0iGxKPfMm2-62" value="" style="edgeStyle=orthogonalEdgeStyle;rounded=0;orthogonalLoop=1;jettySize=auto;html=1;startArrow=none;startFill=0;endArrow=oval;endFill=1;entryX=0;entryY=0.5;entryDx=0;entryDy=0;fillColor=#0050ef;strokeColor=#001DBC;" parent="1" source="0Kl0KZCjWH0iGxKPfMm2-50" target="0Kl0KZCjWH0iGxKPfMm2-58" edge="1"><mxGeometry relative="1" as="geometry"/></mxCell><mxCell id="r367V5P4rf6iQ48ipHcj-7" value="Logs " style="swimlane;fontStyle=0;childLayout=stackLayout;horizontal=1;startSize=26;fillColor=none;horizontalStack=0;resizeParent=1;resizeParentMax=0;resizeLast=0;collapsible=1;marginBottom=0;" parent="1" vertex="1"><mxGeometry x="-350" y="585" width="120" height="130" as="geometry"/></mxCell><mxCell id="r367V5P4rf6iQ48ipHcj-8" value="id_compte" style="text;strokeColor=none;fillColor=none;align=left;verticalAlign=top;spacingLeft=4;spacingRight=4;overflow=hidden;rotatable=0;points=[[0,0.5],[1,0.5]];portConstraint=eastwest;" parent="r367V5P4rf6iQ48ipHcj-7" vertex="1"><mxGeometry y="26" width="120" height="26" as="geometry"/></mxCell><mxCell id="r367V5P4rf6iQ48ipHcj-9" value="date " style="text;strokeColor=none;fillColor=none;align=left;verticalAlign=top;spacingLeft=4;spacingRight=4;overflow=hidden;rotatable=0;points=[[0,0.5],[1,0.5]];portConstraint=eastwest;" parent="r367V5P4rf6iQ48ipHcj-7" vertex="1"><mxGeometry y="52" width="120" height="26" as="geometry"/></mxCell><mxCell id="r367V5P4rf6iQ48ipHcj-10" value="heure " style="text;strokeColor=none;fillColor=none;align=left;verticalAlign=top;spacingLeft=4;spacingRight=4;overflow=hidden;rotatable=0;points=[[0,0.5],[1,0.5]];portConstraint=eastwest;" parent="r367V5P4rf6iQ48ipHcj-7" vertex="1"><mxGeometry y="78" width="120" height="26" as="geometry"/></mxCell><mxCell id="i0L20SIGQqLA-Nk1rgH1-1" value="adresse_ip&#10;" style="text;strokeColor=none;fillColor=none;align=left;verticalAlign=top;spacingLeft=4;spacingRight=4;overflow=hidden;rotatable=0;points=[[0,0.5],[1,0.5]];portConstraint=eastwest;" parent="r367V5P4rf6iQ48ipHcj-7" vertex="1"><mxGeometry y="104" width="120" height="26" as="geometry"/></mxCell></root></mxGraphModel></diagram></mxfile>